<?xml version="1.0" encoding="UTF-8"?>
<svg id="_图层_2" data-name="图层 2" xmlns="http://www.w3.org/2000/svg" viewBox="0 0 908.12 908.12">
  <defs>
    <style>
      .cls-1 {
        fill: #fff;
      }

      .cls-2 {
        fill: none;
        stroke: #fff;
        stroke-miterlimit: 10;
        stroke-width: 13px;
      }
    </style>
  </defs>
  <g id="_图层_1-2" data-name="图层 1">
    <g>
      <g>
        <path class="cls-1" d="M224.25,579.03c-3.1,0-6.2,.08-9.3-.02-2.83-.1-5.66-.39-8.49-.62-.51-.04-1.02-.17-1.52-.29-1.49-.37-1.86-.73-2.03-2.25-.22-1.96-.48-3.92-.56-5.91-.11-2.83-.4-5.66-.64-8.49-.28-3.34-.58-6.68-.89-10.02-.26-2.83-.53-5.65-.81-8.47-.21-2.23-.44-4.45-.65-6.68-.57-5.99-1.08-11.99-1.71-17.98-.73-6.93-1.57-13.84-2.36-20.76-.58-5.04-1.12-10.09-1.72-15.13-.57-4.78-1.21-9.56-1.82-14.34-.6-4.69-1.18-9.39-1.8-14.08-.71-5.37-1.44-10.74-2.2-16.11-.98-6.9-1.97-13.8-3.02-20.69-1.39-9.1-2.81-18.2-4.28-27.28-1.45-8.92-2.95-17.83-4.47-26.73-.83-4.83-1.75-9.65-2.63-14.48-.06-.34-.15-.67-.21-1.01-.38-2.29-.06-2.92,2.1-3.73,3.38-1.27,6.79-2.49,10.18-3.73,9.3-3.39,18.6-6.77,27.91-10.15,.89-.32,1.78-.65,2.7-.89,1.51-.39,2.34,.18,2.38,1.78,.05,1.63-.08,3.27-.16,4.9-.06,1.12-.2,2.23-.24,3.34-.67,16.95-.71,33.9-.47,50.86,.09,6.28,.27,12.56,.56,18.83,.17,3.61,.26,7.22,.45,10.83,.2,3.86,.55,7.72,.83,11.58,.03,.43,.07,.86,.08,1.29,.13,4.47,.56,8.92,.98,13.38,.43,4.54,.72,9.09,1.19,13.62,.53,5.13,1.17,10.25,1.78,15.38,.21,1.79,.44,3.59,.72,5.37,.32,2.02,.74,2.28,2.7,2.2,6.27-.28,12.53-.84,18.83-.66,4.39,.13,8.75,.51,13.12,.9,4.64,.42,9.22,1.14,13.78,2.04,10,1.99,19.67,5.03,29,9.14,5.29,2.33,10.44,4.9,15.45,7.76,3.38,1.93,6.57,4.15,9.35,6.85,3.87,3.75,6.52,8.21,7.12,13.69,.11,1.02,.16,2.07,.05,3.09-.49,4.25-1.88,8.19-4.18,11.82-3.03,4.79-6.93,8.77-11.22,12.4-4.76,4.02-10.13,7.14-15.58,10.09-14.49,7.83-29.83,13.38-46,16.51-5.83,1.13-11.7,1.94-17.62,2.49-4.91,.46-9.8,.31-14.7,.38Zm18.42-66.59c.09,1.11,.12,1.97,.22,2.82,.65,5.29,1.27,10.59,1.98,15.87,.81,6.05,1.7,12.1,2.56,18.14,.09,.59,.2,1.19,.38,1.76,.39,1.24,.98,1.52,2.13,1.03,.63-.27,1.24-.6,1.84-.93,8.04-4.36,15.68-9.32,22.94-14.87,3.42-2.62,6.75-5.35,9.89-8.28,2.7-2.52,2.61-3.04-.48-4.85-2.24-1.31-4.62-2.31-6.97-3.36-10.25-4.61-20.86-8.07-31.92-10.14-.34-.06-.67-.15-1.01-.18-1.15-.1-1.76,.5-1.72,1.7,.02,.51,.12,1.03,.15,1.29Z"/>
        <path class="cls-1" d="M509.27,579.03c-3.1,0-6.2,.09-9.29-.03-2.92-.11-5.84-.33-8.74-.69-3.16-.39-3.48-.92-3.69-4.14-.24-3.69-.59-7.37-.89-11.05-.2-2.48-.4-4.97-.62-7.45-.3-3.43-.64-6.85-.93-10.27-.24-2.74-.44-5.49-.67-8.23-.18-2.06-.36-4.11-.58-6.16-.61-5.73-1.25-11.45-1.87-17.18-.57-5.3-1.1-10.6-1.69-15.9-.41-3.67-.9-7.34-1.34-11.01-.59-4.87-1.14-9.74-1.74-14.6-.55-4.44-1.12-8.87-1.71-13.31-.79-5.97-1.6-11.93-2.44-17.9-.89-6.3-1.81-12.6-2.74-18.9-.98-6.64-1.96-13.27-3.01-19.9-1.22-7.73-2.45-15.46-3.78-23.18-1.71-9.92-3.53-19.82-5.29-29.73-.14-.76-.22-1.53-.33-2.3-.15-1.09,.32-1.82,1.33-2.24,.64-.26,1.27-.55,1.91-.78,8.41-3.05,16.83-6.1,25.25-9.14,4.37-1.58,8.73-3.18,13.11-4.76,.65-.23,1.29-.49,1.96-.61,.96-.18,1.7,.42,1.82,1.37,.02,.17,.04,.35,.02,.51-.39,4.11,.06,8.27-.56,12.37-.12,.76-.08,1.55-.09,2.32-.03,3.27-.13,6.54-.07,9.81,.12,6.46-.71,12.89-.4,19.35,.43,9.03,.2,18.07,.56,27.09,.16,4.12,.11,8.27,.5,12.37,.42,4.37,.25,8.76,.77,13.13,.42,3.49,.43,7.04,.68,10.55,.23,3.26,.53,6.51,.82,9.77,.2,2.23,.41,4.45,.64,6.67,.74,7.1,1.48,14.2,2.23,21.29,.14,1.28,.32,2.56,.49,3.84,.02,.17,.04,.34,.07,.51,.32,1.63,.99,2.12,2.71,2.03,5.93-.31,11.84-.83,17.79-.71,4.82,.09,9.61,.5,14.41,.92,6.36,.56,12.62,1.69,18.82,3.17,9.57,2.29,18.8,5.58,27.7,9.79,4.28,2.03,8.49,4.19,12.57,6.6,3.65,2.16,7.01,4.69,9.86,7.85,1.62,1.8,2.98,3.78,3.97,6,1.96,4.35,2.09,8.82,.9,13.37-1.19,4.51-3.66,8.32-6.51,11.92-4.94,6.23-11.2,10.89-17.96,14.94-8.14,4.87-16.67,8.96-25.56,12.3-10.02,3.76-20.29,6.56-30.86,8.32-5.35,.89-10.74,1.5-16.14,1.89-3.77,.27-7.57,.05-11.36,.05,0,.02,0,.04,0,.06Zm18.14-67.44c.23,2.18,.42,4.32,.68,6.45,.79,6.3,1.59,12.61,2.43,18.91,.52,3.92,1.12,7.82,1.7,11.73,.13,.85,.3,1.7,.54,2.52,.26,.88,.97,1.22,1.81,.9,.64-.25,1.25-.57,1.86-.88,6.96-3.6,13.49-7.91,19.87-12.44,5.05-3.59,9.74-7.62,14.32-11.79,.25-.23,.49-.49,.69-.76,.38-.51,.33-1.18-.09-1.66-.53-.59-1.23-.93-1.92-1.28-3.05-1.59-6.14-3.09-9.31-4.43-9.52-4.04-19.31-7.22-29.48-9.17-.5-.1-1.01-.21-1.52-.23-.77-.04-1.32,.42-1.47,1.16-.07,.33-.08,.68-.12,.98Z"/>
        <path class="cls-1" d="M684.3,552.63c-2.24,0-4.47,0-6.71,0-.6,0-1.21,0-1.8-.06-1.54-.17-2.17-.66-2.46-2.18-.32-1.69-.5-3.4-.71-5.11-1.1-9.13-2.19-18.27-3.29-27.4-1.02-8.45-2.07-16.9-3.1-25.34-1.03-8.36-2.04-16.73-3.08-25.09-.96-7.76-1.97-15.52-2.92-23.29-.77-6.31-1.48-12.64-2.25-18.95-.75-6.14-1.58-12.28-2.34-18.42-.6-4.86-1.15-9.73-1.74-14.6-.58-4.78-1.2-9.55-1.79-14.33-.45-3.67-.88-7.34-1.32-11.01-.22-1.88-.48-3.75-.67-5.64-.18-1.72,.29-2.36,1.99-2.69,1.18-.22,2.38-.35,3.58-.5,4.95-.59,9.9-1.17,14.85-1.76,1.79-.21,3.58-.46,5.38-.65,1.92-.21,2.62,.29,2.82,2.08,.24,2.14,.39,4.28,.58,6.42,.29,3.17,.56,6.34,.87,9.5,.22,2.22,.25,4.46,.54,6.68,.36,2.81,.44,5.65,.68,8.48,.25,3,.53,5.99,.83,8.99,.24,2.31,.33,4.63,.57,6.94,.52,4.96,.79,9.94,1.2,14.91,.25,3,.6,5.99,.85,8.98,.25,2.91,.44,5.83,.67,8.74,.18,2.31,.35,4.63,.57,6.94,.27,2.91,.6,5.81,.85,8.73,.25,2.91,.43,5.83,.66,8.74,.17,2.23,.35,4.46,.55,6.68,.27,2.91,.57,5.82,.85,8.73,.2,2.14,.24,4.29,.51,6.43,.35,2.81,.44,5.65,.68,8.48,.25,3,.51,5.99,.83,8.99,.24,2.22,.25,4.46,.54,6.68,.38,2.89,.47,5.82,.69,8.74,.17,2.23,.35,4.46,.55,6.68,.27,2.91,.58,5.82,.84,8.73,.23,2.48,.42,4.97,.62,7.45,.28,3.34,.56,6.68,.83,10.02,.04,.43,.1,.86,.07,1.28-.07,.92-.65,1.63-1.57,1.82-.67,.14-1.37,.17-2.05,.17-2.41,.02-4.82,0-7.23,0Z"/>
        <path class="cls-1" d="M398.82,552.63c-2.32,0-4.65,0-6.97,0-.6,0-1.21,0-1.8-.08-1.15-.13-1.91-.75-2.13-1.91-.19-1.01-.38-2.03-.51-3.05-.84-6.83-1.68-13.65-2.5-20.48-.59-4.87-1.14-9.73-1.73-14.6-.57-4.69-1.17-9.39-1.75-14.08-.46-3.75-.9-7.51-1.36-11.27-.4-3.24-.8-6.49-1.2-9.73-.63-5.03-1.25-10.07-1.88-15.1-.63-5.03-1.26-10.07-1.87-15.1-.59-4.78-1.16-9.56-1.74-14.34-.62-5.03-1.25-10.07-1.87-15.1-.59-4.78-1.16-9.56-1.74-14.34-.62-5.03-1.25-10.07-1.87-15.1-.59-4.78-1.16-9.56-1.74-14.34-.45-3.67-.92-7.34-1.36-11.01-.08-.68-.16-1.37-.16-2.06,.01-1.57,.53-2.2,2.07-2.44,1.7-.26,3.41-.42,5.12-.63,3.58-.44,7.17-.9,10.75-1.34,2.73-.34,5.46-.68,8.2-.97,1.44-.15,2.08,.33,2.37,1.75,.21,1.01,.37,2.04,.43,3.06,.1,1.8,.24,3.6,.44,5.4,.32,2.82,.43,5.66,.67,8.48,.26,3.08,.56,6.16,.86,9.24,.21,2.22,.26,4.46,.54,6.68,.36,2.81,.43,5.66,.67,8.48,.25,3,.53,5.99,.84,8.99,.23,2.22,.25,4.46,.54,6.68,.37,2.81,.44,5.65,.68,8.48,.26,3.08,.55,6.16,.86,9.24,.21,2.14,.23,4.29,.51,6.43,.37,2.9,.47,5.83,.69,8.74,.17,2.23,.35,4.46,.55,6.68,.27,2.91,.58,5.82,.84,8.73,.25,2.83,.43,5.66,.67,8.48,.25,3,.46,6,.81,8.99,.27,2.31,.26,4.63,.57,6.94,.39,2.89,.47,5.82,.7,8.74,.18,2.31,.35,4.63,.57,6.94,.27,2.91,.6,5.81,.85,8.73,.18,2.14,.27,4.29,.52,6.43,.34,2.99,.43,6,.68,9,.23,2.74,.53,5.48,.79,8.21,.24,2.57,.5,5.13,.66,7.71,.11,1.8,.18,3.6,.46,5.4,.12,.76,.11,1.55,.04,2.32-.11,1.22-.71,1.83-1.96,2.02-.68,.1-1.37,.1-2.06,.1-2.24,.01-4.48,0-6.71,0Z"/>
        <path class="cls-1" d="M659.22,559.27c.02,.17,.02,.34,.06,.51,.35,1.82-.66,2.52-2.25,2.7-4.53,.52-9.05,1.07-13.58,1.62-1.88,.23-3.75,.5-5.63,.7-1.6,.17-2.22-.21-2.58-1.82-.71-3.1-1.32-6.23-1.94-9.35-4.02-20.08-8.03-40.17-12.06-60.26-1.88-9.37-3.79-18.73-5.68-28.09-.15-.76-.29-1.53-.31-2.29-.02-.86,.48-1.48,1.32-1.68,.92-.22,1.86-.37,2.79-.49,4.78-.59,9.56-1.16,14.34-1.75,3.24-.4,6.49-.8,9.73-1.2,.43-.05,.85-.17,1.28-.18,1.1-.04,1.8,.43,2.17,1.46,.14,.4,.24,.83,.29,1.25,.55,4.52,1.08,9.05,1.63,13.58,.58,4.78,1.16,9.56,1.74,14.34,.45,3.67,.9,7.34,1.36,11.01,.61,4.95,1.24,9.9,1.84,14.85,.45,3.67,.86,7.35,1.31,11.02,.57,4.7,1.18,9.39,1.76,14.08,.63,5.12,1.24,10.25,1.86,15.37,.19,1.54,.39,3.07,.59,4.61h-.05Z"/>
        <path class="cls-1" d="M373.88,560.03c0,1.36-.58,2.12-1.94,2.37-1.27,.23-2.55,.39-3.83,.54-5.12,.62-10.24,1.24-15.36,1.85-.17,.02-.34,.07-.51,.08-1.4,.11-2.1-.34-2.48-1.69-.23-.83-.38-1.68-.55-2.52-4.02-20.08-8.02-40.15-12.05-60.23-2.28-11.39-4.6-22.77-6.9-34.15-.17-.84-.36-1.68-.47-2.54-.2-1.53,.29-2.2,1.84-2.54,.75-.17,1.52-.31,2.29-.4,4.78-.58,9.56-1.15,14.34-1.73,3.33-.4,6.66-.8,9.99-1.2,.34-.04,.68-.13,1.02-.14,1.09-.03,1.82,.48,2.13,1.5,.12,.41,.17,.84,.22,1.27,.51,4.01,1.01,8.02,1.51,12.03,.62,4.95,1.24,9.9,1.84,14.84,.45,3.67,.86,7.34,1.3,11.01,.56,4.61,1.15,9.21,1.71,13.82,.64,5.2,1.26,10.41,1.9,15.62,.58,4.69,1.18,9.38,1.76,14.08,.63,5.12,1.23,10.24,1.86,15.36,.11,.94,.25,1.87,.37,2.77Z"/>
        <path class="cls-1" d="M735.11,512.62c0,15.83,0,31.66,0,47.5,0,.86,.02,1.72-.03,2.58-.1,1.81-.58,2.29-2.31,2.42-.34,.03-.69,.02-1.03,.02-5.51,0-11.01,.01-16.52,0-3.03-.01-3.2-.17-3.66-3.07-.09-.59-.19-1.19-.23-1.79-.22-3.26-.39-6.52-.63-9.78-.24-3.17-.55-6.34-.83-9.5-.22-2.48-.27-4.97-.55-7.46-.37-3.33-.43-6.69-.68-10.03-.24-3.26-.52-6.51-.84-9.76-.23-2.4-.24-4.8-.53-7.2-.38-3.15-.45-6.34-.68-9.51-.25-3.34-.54-6.68-.82-10.02-.04-.43-.11-.85-.13-1.28-.19-4.55-.6-9.09-1-13.63-.21-2.31-.23-4.63-.53-6.94-.15-1.1-.12-2.24-.07-3.35,.06-1.44,.62-1.98,2.06-2.13,.51-.05,1.03-.04,1.55-.04,7.92,0,15.83-.01,23.75,0,3.41,0,3.7,.29,3.71,3.67,.01,16.43,0,32.87,0,49.3Z"/>
        <path class="cls-1" d="M449.49,512.61c0,16.08,0,32.17,0,48.25,0,.94-.02,1.89-.11,2.83-.08,.77-.58,1.24-1.35,1.34-.59,.08-1.2,.1-1.8,.1-5.59,0-11.18,0-16.77,0-.6,0-1.21-.02-1.8-.12-.75-.12-1.21-.62-1.4-1.35-.06-.25-.11-.5-.13-.76-.19-2.48-.37-4.97-.57-7.45-.27-3.34-.5-6.68-.84-10.02-.25-2.4-.22-4.8-.52-7.2-.4-3.15-.46-6.34-.7-9.51-.27-3.6-.53-7.2-.87-10.79-.22-2.4-.23-4.8-.52-7.2-.39-3.15-.45-6.34-.69-9.51-.26-3.43-.54-6.85-.86-10.27-.22-2.4-.24-4.8-.52-7.2-.38-3.24-.44-6.51-.69-9.77-.25-3.43-.46-6.86-.86-10.27-.43-3.69,.91-4.1,3.56-4.09,8,.03,16,0,24,.02,3.06,0,3.42,.37,3.43,3.42,.02,7.4,0,14.79,0,22.19,0,9.12,0,18.24,0,27.35Z"/>
        <path class="cls-1" d="M637.12,405.81c.17-.02,.34-.05,.51-.07,2.25-.22,2.67,.05,3,2.4,.53,3.74,.99,7.49,1.46,11.23,.6,4.77,1.17,9.54,1.76,14.31,.37,3.07,.76,6.13,1.11,9.2,.17,1.52-.18,2.12-1.65,2.4-2.28,.42-4.58,.67-6.88,.98-.76,.1-1.55,.12-2.3,.29-2.36,.53-3.34-.59-3.53-2.52-.23-2.39-.64-4.76-.93-7.15-.85-6.81-1.68-13.63-2.51-20.44-.28-2.3-.55-4.6-.76-6.91-.16-1.79,.22-2.32,2.03-2.6,2.88-.45,5.78-.8,8.67-1.19,0,.02,0,.05,0,.07Z"/>
        <path class="cls-1" d="M340.87,409.81c-.02-2.04,.4-2.63,2.13-2.88,3.23-.46,6.48-.85,9.72-1.23,1.47-.17,2.05,.28,2.41,1.69,.11,.41,.15,.85,.2,1.27,.83,6.74,1.66,13.48,2.48,20.22,.54,4.44,1.08,8.88,1.61,13.32,.05,.42,.05,.86,.02,1.29-.05,.86-.5,1.46-1.34,1.7-.66,.19-1.34,.35-2.02,.44-2.73,.36-5.46,.7-8.19,1.01-1.61,.18-2.42-.4-2.73-2.03-.27-1.43-.41-2.89-.58-4.35-.59-4.95-1.15-9.91-1.75-14.86-.57-4.69-1.19-9.38-1.78-14.07-.08-.6-.15-1.19-.19-1.52Z"/>
        <path class="cls-1" d="M734,427.47c0,5.15,0,10.31,0,15.46,0,.77,0,1.55-.09,2.31-.18,1.43-.73,1.96-2.17,2.06-1.11,.07-2.23,.04-3.35,.04-1.98,0-3.95,.03-5.93-.04-1.57-.06-2.13-.63-2.33-2.19-.08-.59-.07-1.2-.08-1.8-.02-1.8-.03-3.61-.04-5.41-.06-8.67-.71-17.33-.54-26.01,.02-.86-.02-1.72,.06-2.57,.11-1.17,.63-1.69,1.79-1.82,.77-.09,1.54-.07,2.32-.07,2.58,0,5.16-.04,7.73,.02,1.86,.04,2.41,.62,2.57,2.49,.06,.77,.04,1.54,.04,2.32,0,5.07,0,10.14,0,15.2Z"/>
        <path class="cls-1" d="M340.67,445.56c0,1.19-.5,1.87-1.63,2.11-1.01,.21-2.04,.3-3.06,.44-1.79,.23-3.58,.51-5.37,.68-1.72,.16-2.37-.28-2.76-1.98-.63-2.77-1.16-5.56-1.72-8.34-1.69-8.43-3.38-16.87-5.05-25.3-.6-3.03-.33-3.48,2.68-3.94,3.06-.47,6.14-.8,9.21-1.17,.42-.05,.86-.03,1.28,.04,.64,.1,1.15,.46,1.34,1.08,.25,.82,.47,1.66,.58,2.51,1.11,8.26,2.19,16.53,3.29,24.8,.36,2.73,.73,5.45,1.09,8.18,.05,.34,.09,.68,.13,.91Z"/>
        <path class="cls-1" d="M626.08,444.78c0,2.08-.48,2.72-2.15,2.97-2.55,.38-5.1,.7-7.66,1-1.8,.21-2.57-.3-3-2.05-.45-1.83-.78-3.7-1.15-5.55-1.83-9.18-3.66-18.36-5.5-27.54-.74-3.69-.59-3.95,3.11-4.47,2.8-.39,5.62-.71,8.43-1.06,.26-.03,.51-.06,.77-.05,1.36,.01,2.08,.55,2.38,1.88,.22,1,.37,2.03,.5,3.05,.92,6.81,1.82,13.61,2.73,20.42,.43,3.23,.89,6.46,1.33,9.69,.09,.68,.16,1.36,.2,1.71Z"/>
        <path class="cls-1" d="M448.38,427.41c0,5.42,.01,10.84,0,16.26-.01,3.4-.27,3.65-3.7,3.67-2.07,.01-4.13,0-6.2,0-.6,0-1.21,0-1.8-.07-1.16-.14-1.67-.61-1.8-1.82-.2-1.88-.4-3.77-.44-5.65-.09-5.51-.11-11.01-.14-16.52-.02-3.96-.61-7.89-.44-11.85,.03-.69-.01-1.38,.06-2.06,.12-1.17,.64-1.7,1.77-1.86,.42-.06,.86-.07,1.29-.07,2.75,0,5.51,0,8.26,0,.51,0,1.04,.01,1.54,.1,.85,.15,1.39,.69,1.5,1.55,.09,.77,.1,1.54,.1,2.32,0,5.33,0,10.67,0,16Z"/>
        <path class="cls-1" d="M421.93,407.45c1.63,0,3.27-.05,4.9,.01,1.78,.07,2.28,.6,2.43,2.32,.02,.26,.01,.52,.03,.77,.51,8.07,.46,16.15,.53,24.23,.02,2.49-.01,4.98,.32,7.47,.15,1.1,.09,2.24-.01,3.34-.09,1.03-.64,1.53-1.66,1.67-.68,.09-1.37,.08-2.06,.08-2.06,0-4.13,.03-6.19,0-2.38-.04-2.65-.31-3-2.58-.25-1.62-.36-3.24-.46-4.87-.21-3.43-.51-6.85-.83-10.27-.23-2.48-.28-4.97-.55-7.45-.45-4.1-.63-8.22-.9-12.34-.1-1.58,.46-2.27,2.03-2.34,1.8-.08,3.61-.02,5.42-.02,0,0,0,0,0-.01Z"/>
        <path class="cls-1" d="M715.5,436.48c0,2.41,0,4.81,0,7.22,0,.6,.01,1.21-.06,1.8-.14,1.16-.64,1.74-1.82,1.77-3,.07-6.01,.07-9.02,.01-1.14-.02-1.67-.59-1.91-1.74-.11-.5-.15-1.02-.17-1.53-.05-1.89-.23-3.77-.42-5.65-.32-3.16-.44-6.34-.67-9.5-.25-3.34-.55-6.67-.82-10.01-.22-2.74-.44-5.47-.66-8.21-.03-.34-.03-.69,0-1.03,.1-1.44,.62-2.06,2.05-2.13,1.8-.09,3.61-.05,5.41-.05,1.63,0,3.27-.04,4.9,.02,1.85,.07,2.4,.63,2.58,2.5,.05,.51,.04,1.03,.05,1.55,.01,1.63,.07,3.27,.03,4.9-.18,6.7,.7,13.38,.55,20.08Z"/>
      </g>
      <rect class="cls-2" x="6.5" y="6.5" width="895.12" height="895.12" rx="74.04" ry="74.04"/>
    </g>
  </g>
</svg>