<?xml version="1.0" encoding="UTF-8"?>
<svg id="_图层_2" data-name="图层 2" xmlns="http://www.w3.org/2000/svg" viewBox="0 0 908.12 908.12">
  <defs>
    <style>
      .cls-1 {
        fill: #fff;
      }

      .cls-2 {
        fill: none;
        stroke: #fff;
        stroke-miterlimit: 10;
        stroke-width: 13px;
      }
    </style>
  </defs>
  <g id="_图层_1-2" data-name="图层 1">
    <g>
      <g>
        <path class="cls-1" d="M467.9,422.32c1.96-3.15,4.07-6.1,6.51-8.83,6.44-7.18,14.23-12.47,22.94-16.49,8.37-3.87,17.15-6.37,26.29-7.47,20.62-2.48,40.04,.85,57.49,12.67,13.42,9.09,22.05,21.8,27.02,37.1,3.05,9.4,4.63,19.08,4.65,28.95,.07,44.57,.03,89.13,.09,133.7,0,1.76-.62,2.1-2.22,2.1-20.54-.04-41.07-.03-61.61-.03-2.33,0-2.34,0-2.34-2.45,0-33.58,0-67.16,0-100.73,0-6.99,.12-13.98-1.38-20.87-2.01-9.21-5.81-17.47-12.88-23.92-5.52-5.04-12.04-8.03-19.49-8.93-17.85-2.17-34.53,8.73-41.3,25.8-2.25,5.67-3.42,11.55-3.81,17.64-.25,3.94-.2,7.87-.21,11.81-.02,32.97,0,65.93,0,98.9q0,2.75-2.66,2.75c-20.26,0-40.52,0-60.77,0-2.4,0-2.41,0-2.41-2.34,0-67.99,0-135.98,0-203.96,0-2.4,0-2.41,2.34-2.41,20.59,0,41.18,0,61.77,0,2.4,0,2.44,0,2.38,2.35-.19,8.09-.41,16.19-.61,24.28,0,.08,.09,.17,.21,.37Z"/>
        <path class="cls-1" d="M296.23,499.67c0-33.91,0-67.82,0-101.73q0-2.63,2.62-2.63c20.59,0,41.18,0,61.77,0q2.45,0,2.45,2.46c0,67.93,0,135.86,0,203.79q0,2.46-2.45,2.46c-20.7,0-41.4,0-62.1,0-2.28,0-2.29,0-2.29-2.29,0-34.02,0-68.04,0-102.06Z"/>
        <path class="cls-1" d="M328.77,304.06c18.4,0,33.16,14.85,33.33,33.18,.17,18.21-14.81,33.72-33.4,33.67-18.71-.05-33.49-14.92-33.48-33.73,.02-18.32,15-33.12,33.55-33.12Z"/>
      </g>
      <rect class="cls-2" x="6.5" y="6.5" width="895.12" height="895.12" rx="74.04" ry="74.04"/>
    </g>
  </g>
</svg>