<?xml version="1.0" encoding="UTF-8"?>
<svg id="_图层_2" data-name="图层 2" xmlns="http://www.w3.org/2000/svg" viewBox="0 0 872.7 90.49">
  <defs>
    <style>
      .cls-1 {
        stroke: #fff;
        stroke-linecap: round;
        stroke-linejoin: round;
      }

      .cls-1, .cls-2 {
        fill: #fff;
      }
    </style>
  </defs>
  <g id="_图层_1-2" data-name="图层 1">
    <path class="cls-2" d="M702.76,69.59v12.32h-227.73v-12.32h227.73m3-3h-233.73v18.32h233.73v-18.32h0Z"/>
    <path class="cls-2" d="M0,25.64H14.39v50.52h22.94c8.5,0,15.75-3,21.74-8.99,5.99-6.03,8.99-13.28,8.99-21.74s-2.99-15.75-8.99-21.74c-5.99-5.99-13.24-8.99-21.74-8.99H0V.38H37.33c6.12,0,11.96,1.17,17.53,3.52,5.4,2.31,10.18,5.53,14.33,9.68,4.15,4.15,7.37,8.92,9.68,14.33,2.35,5.57,3.52,11.42,3.52,17.53s-1.17,11.96-3.52,17.53c-2.3,5.4-5.53,10.18-9.68,14.33-4.15,4.15-8.92,7.35-14.33,9.61-5.57,2.39-11.42,3.58-17.53,3.58H0V25.64Z"/>
    <path class="cls-2" d="M89.93,.5h60.52V14.7h-44.99v23.94h37.58v14.2h-37.58v23.44h44.99v14.2h-60.52V.5Z"/>
    <path class="cls-2" d="M158.89,90.49l-.13-90.11,58.69,55.11V.38h15.33V90.43l-58.76-55.17-.06,55.24h-15.08Z"/>
    <path class="cls-2" d="M243.75,90.49l-.13-90.11,58.69,55.11V.38h15.33V90.43l-58.76-55.17-.06,55.24h-15.08Z"/>
    <path class="cls-2" d="M328.68,.57h15.58V90.49h-15.58V.57Z"/>
    <path class="cls-2" d="M399.52,.5c6.29,0,11.84,2.03,16.65,6.1,4.69,3.9,7.67,8.82,8.92,14.77h-15.77c-.96-1.88-2.35-3.41-4.15-4.59-1.89-1.17-3.94-1.76-6.16-1.76h-18.03c-3.18,0-5.93,1.13-8.23,3.39-2.26,2.26-3.39,5.01-3.39,8.23s1.13,5.93,3.39,8.23c2.3,2.26,5.05,3.39,8.23,3.39h18.54c7.16,0,13.3,2.56,18.41,7.67,5.11,5.11,7.67,11.25,7.67,18.41s-2.56,13.36-7.67,18.48c-5.11,5.11-11.25,7.67-18.41,7.67h-19.79c-7.16,0-13.3-2.55-18.41-7.67-4.99-4.98-7.54-10.95-7.67-17.91h15.84c.13,2.98,1.26,5.53,3.39,7.67,2.26,2.3,5.01,3.46,8.23,3.46h17.16c3.18,0,5.93-1.15,8.23-3.46,2.26-2.26,3.39-5.01,3.39-8.23s-1.13-5.9-3.39-8.17c-2.3-2.3-5.05-3.46-8.23-3.46h-18.54c-7.16,0-13.3-2.55-18.41-7.67-5.11-5.11-7.67-11.25-7.67-18.41s2.55-13.36,7.67-18.48c5.11-5.11,11.25-7.67,18.41-7.67h19.79Z"/>
    <path class="cls-2" d="M720.71,.38h15.65V74.91h45.18v15.58h-60.83V.38Z"/>
    <path class="cls-2" d="M788.75,.57h15.59V90.49h-15.59V.57Z"/>
    <path class="cls-2" d="M815.27,62.27V0h14.27V61.96c.04,1.05,.17,2.08,.38,3.08,.92,3.9,3.08,6.89,6.47,8.99,3.39,2.1,7.04,2.68,10.93,1.76,3.27-.79,5.95-2.51,8.05-5.15,2.05-2.64,3.08-5.61,3.08-8.92V0h14.27V62.02c-.08,6.49-2.16,12.32-6.22,17.47-4.11,5.24-9.41,8.63-15.9,10.18-7.75,1.8-14.98,.63-21.68-3.52-6.75-4.19-11.04-10.14-12.88-17.85-.46-2.01-.71-4.02-.75-6.03Z"/>
    <g>
      <path class="cls-1" d="M480.83,7.21l2.8-4.03h9.77l-9.71,14.2-19.9,29.13-17.75,26.03h-9.83l17.33-25.36V3.18h7.8V35.75l19.48-28.54Z"/>
      <path class="cls-1" d="M527.12,24.98V3.31h7.8V46.64h-7.8v-8.19c-3.73,5.46-9.1,8.19-16.08,8.19-3.02,0-5.49-.55-7.42-1.65-1.93-1.1-3.42-2.52-4.5-4.26-1.07-1.74-1.84-3.59-2.29-5.55-.46-1.96-.74-3.85-.83-5.68-.1-1.83-.15-3.34-.15-4.53V3.31h7.8V24.98c0,1.94,.08,3.9,.24,5.88,.16,1.98,.74,3.63,1.76,4.95s2.81,1.98,5.39,1.98c4.45,0,8.24-1.23,11.38-3.7s4.71-5.51,4.71-9.12Z"/>
      <path class="cls-1" d="M567.36,3.31h9.89l-15.01,21.66,15.01,21.67h-9.89l-10.07-14.53-10.07,14.53h-9.89l15.01-21.67-15.01-21.66h9.89l10.07,14.53,10.07-14.53Z"/>
      <path class="cls-1" d="M610.93,24.98V3.31h7.8V46.64h-7.8v-8.19c-3.73,5.46-9.1,8.19-16.08,8.19-3.02,0-5.49-.55-7.42-1.65-1.93-1.1-3.42-2.52-4.5-4.26-1.07-1.74-1.84-3.59-2.29-5.55-.46-1.96-.74-3.85-.83-5.68-.1-1.83-.15-3.34-.15-4.53V3.31h7.8V24.98c0,1.94,.08,3.9,.24,5.88,.16,1.98,.74,3.63,1.76,4.95s2.81,1.98,5.39,1.98c4.45,0,8.24-1.23,11.38-3.7s4.71-5.51,4.71-9.12Z"/>
      <path class="cls-1" d="M654.74,7.61V3.31h7.8V46.64h-7.8v-4.36c-3.42,2.91-7.33,4.36-11.74,4.36-5.4,0-10.01-2.11-13.82-6.34-3.81-4.23-5.72-9.34-5.72-15.33s1.91-11.1,5.72-15.32c3.81-4.23,8.42-6.34,13.82-6.34,4.41,0,8.32,1.43,11.74,4.29Zm-11.74,30.38c3.26,0,6.03-1.28,8.31-3.83,2.28-2.55,3.43-5.62,3.43-9.18s-1.14-6.68-3.43-9.21c-2.28-2.53-5.05-3.8-8.31-3.8s-5.98,1.27-8.28,3.8c-2.3,2.53-3.46,5.6-3.46,9.21s1.15,6.63,3.46,9.18c2.3,2.55,5.06,3.83,8.28,3.83Z"/>
      <path class="cls-1" d="M692.46,3.31c3.06,0,5.54,.55,7.45,1.65,1.91,1.1,3.4,2.51,4.47,4.23s1.85,3.57,2.32,5.55,.75,3.89,.83,5.71c.08,1.83,.12,3.34,.12,4.52v21.67h-7.8V24.98c0-1.98-.07-3.96-.21-5.94-.14-1.98-.71-3.63-1.73-4.95-1.01-1.32-2.83-1.98-5.45-1.98-4.45,0-8.24,1.23-11.38,3.7-3.14,2.47-4.71,5.53-4.71,9.18v21.67h-7.8V3.31h7.8V11.5c3.77-5.46,9.13-8.19,16.08-8.19Z"/>
    </g>
  </g>
</svg>