<?xml version="1.0" encoding="UTF-8"?>
<svg id="_图层_2" data-name="图层 2" xmlns="http://www.w3.org/2000/svg" viewBox="0 0 363 77">
  <defs>
    <style>
      .cls-1 {
        fill: #fff;
      }
    </style>
  </defs>
  <g id="_图层_1-2" data-name="图层 1">
    <path class="cls-1" d="M360,3V74H3V3H360m3-3H0V77H363V0h0Z"/>
    <g>
      <path class="cls-1" d="M41.7,31.05l3.11,11.16,3.03-11.16h2.8l3.03,11.16,3.11-11.16h3.34l-5,14.76h-2.8l-3.08-11.05-3.08,11.05h-2.8l-5-14.76h3.34Z"/>
      <path class="cls-1" d="M63.75,31.05l3.11,11.16,3.03-11.16h2.8l3.03,11.16,3.11-11.16h3.34l-5,14.76h-2.8l-3.08-11.05-3.08,11.05h-2.8l-5-14.76h3.34Z"/>
      <path class="cls-1" d="M85.79,31.05l3.11,11.16,3.03-11.16h2.8l3.03,11.16,3.11-11.16h3.34l-5,14.76h-2.8l-3.08-11.05-3.08,11.05h-2.8l-5-14.76h3.34Z"/>
      <path class="cls-1" d="M109.75,42.33c.4,.4,.63,.91,.63,1.54,0,.57-.23,1.08-.63,1.51-.43,.37-.94,.57-1.51,.57-.63,0-1.11-.2-1.48-.57-.43-.43-.63-.94-.63-1.51,0-.63,.2-1.14,.63-1.54,.37-.4,.86-.6,1.48-.6,.57,0,1.08,.2,1.51,.6Z"/>
      <path class="cls-1" d="M118.32,31.05h3.37v2.51h-3.37v8.56c0,.4,.09,.69,.26,.88,.17,.17,.43,.29,.8,.29h1.94v2.51h-2.43c-1.26,0-2.2-.34-2.77-1-.57-.63-.83-1.51-.83-2.68v-8.56h-2.74v-2.51h2.74v-3.51l3.03-1.26v4.77Z"/>
      <path class="cls-1" d="M127.77,25.71c.4,.37,.6,.86,.6,1.46s-.23,1.08-.63,1.48c-.4,.37-.91,.57-1.48,.57-.6,0-1.09-.2-1.49-.57-.4-.4-.6-.91-.6-1.48,0-.6,.2-1.08,.6-1.46,.4-.4,.89-.57,1.49-.57s1.11,.17,1.51,.57Zm0,5.34v14.76h-3.03v-14.76h3.03Z"/>
      <path class="cls-1" d="M142.5,33.02v-1.97h3.03v13.79c0,4.68-2.31,7.02-6.88,7.02-2.05,0-3.62-.4-4.71-1.17-1.08-.8-1.74-2-2.03-3.63h3.03c.17,.86,.51,1.48,1.08,1.86,.54,.34,1.43,.54,2.63,.54,2.57,0,3.85-1.4,3.85-4.17v-2.28c-1.08,1.63-2.57,2.46-4.51,2.46s-3.62-.69-4.85-2.03c-1.26-1.34-1.86-3.11-1.86-5.34s.6-4,1.86-5.37c1.23-1.4,2.86-2.08,4.85-2.08s3.43,.77,4.51,2.37Zm-7.02,1.43c-.74,.86-1.09,2.08-1.09,3.65,0,1.43,.29,2.57,.86,3.4,.66,.97,1.71,1.48,3.2,1.48,1.29,0,2.28-.43,3.03-1.29,.69-.88,1.06-2.08,1.06-3.6s-.37-2.77-1.06-3.65c-.74-.91-1.74-1.34-3.03-1.34s-2.29,.43-2.97,1.34Z"/>
      <path class="cls-1" d="M160.72,33.11c1.14,1.48,1.74,3.54,1.77,6.17h-11.19c.11,1.43,.48,2.54,1.17,3.31,.69,.74,1.63,1.14,2.83,1.14,1.06,0,1.91-.26,2.57-.74,.51-.4,.94-1.06,1.34-1.91h3.03c-.34,1.37-1,2.54-2.03,3.45-1.28,1.11-2.91,1.68-4.88,1.68-2.17,0-3.91-.69-5.17-2.03-1.37-1.43-2.05-3.34-2.05-5.77,0-2.2,.63-4.03,1.94-5.51,1.26-1.51,3-2.26,5.17-2.26,2.4,0,4.25,.8,5.51,2.46Zm-8.14,1.03c-.63,.66-1.06,1.6-1.23,2.85h7.96c-.29-2.57-1.63-3.85-4.03-3.85-1.14,0-2.03,.31-2.71,1Z"/>
      <path class="cls-1" d="M173.83,31.02v3.03c-.74-.23-1.46-.31-2.14-.31-.91,0-1.74,.37-2.46,1.11-.77,.8-1.14,1.86-1.14,3.14v7.82h-3.03v-14.76h3.03v2.23c.37-.8,.86-1.4,1.43-1.8,.68-.57,1.48-.83,2.4-.83,.74,0,1.4,.11,1.91,.37Z"/>
      <path class="cls-1" d="M188.19,32.96c1.14,1.43,1.71,3.25,1.71,5.54s-.57,3.97-1.69,5.4c-1.2,1.54-2.88,2.31-5,2.31-1.83,0-3.31-.86-4.51-2.57v7.82h-3.03V31.05h2.83v1.77c1.03-1.46,2.57-2.17,4.57-2.17,2.17,0,3.85,.77,5.11,2.31Zm-8.62,1.71c-.63,.91-.94,2.14-.94,3.65v.26c0,1.57,.37,2.85,1.17,3.83,.69,.89,1.6,1.34,2.74,1.34,1.48,0,2.57-.49,3.28-1.46,.63-.91,.97-2.17,.97-3.8s-.31-2.88-.88-3.8c-.71-1.08-1.8-1.6-3.28-1.6-1.31,0-2.34,.51-3.05,1.57Z"/>
      <path class="cls-1" d="M204.21,32.28c.88,.94,1.34,2.31,1.34,4.11v9.42h-2.8v-2.08c-.57,.74-1.29,1.34-2.14,1.77-.97,.46-2.11,.71-3.43,.71-1.54,0-2.74-.4-3.6-1.17-.94-.77-1.4-1.77-1.4-3,0-1.66,.66-2.94,1.97-3.83,1.2-.86,2.91-1.28,5.08-1.34l3.31-.09v-.6c0-2.06-1.11-3.08-3.34-3.08-.94,0-1.71,.17-2.28,.51-.69,.4-1.11,1-1.29,1.83l-3-.26c.31-1.6,1.11-2.8,2.37-3.54,1.08-.69,2.57-1,4.4-1,2.17,0,3.77,.54,4.79,1.63Zm-4.77,6.79c-2.77,.06-4.14,1.03-4.14,2.85,0,.57,.23,1.03,.71,1.4,.46,.37,1.09,.57,1.86,.57,1.29,0,2.37-.4,3.28-1.17,.91-.77,1.4-1.74,1.4-2.88v-.86l-3.11,.09Z"/>
      <path class="cls-1" d="M217.78,31.02v3.03c-.74-.23-1.46-.31-2.14-.31-.91,0-1.74,.37-2.46,1.11-.77,.8-1.14,1.86-1.14,3.14v7.82h-3.03v-14.76h3.03v2.23c.37-.8,.86-1.4,1.43-1.8,.69-.57,1.48-.83,2.4-.83,.74,0,1.4,.11,1.91,.37Z"/>
      <path class="cls-1" d="M224.12,31.05h3.37v2.51h-3.37v8.56c0,.4,.09,.69,.26,.88,.17,.17,.43,.29,.8,.29h1.94v2.51h-2.43c-1.26,0-2.2-.34-2.77-1-.57-.63-.83-1.51-.83-2.68v-8.56h-2.74v-2.51h2.74v-3.51l3.03-1.26v4.77Z"/>
      <path class="cls-1" d="M242.91,36.7v9.11h-3.03v-8.85c0-2.51-1.17-3.77-3.46-3.77-.86,0-1.63,.29-2.26,.91-.69,.69-1.11,1.63-1.23,2.83v8.88h-3.03v-14.76h3.03v1.83c.57-.74,1.23-1.28,1.97-1.66,.74-.4,1.57-.57,2.48-.57,3.65,0,5.51,2,5.51,6.05Z"/>
      <path class="cls-1" d="M258.13,33.11c1.14,1.48,1.74,3.54,1.77,6.17h-11.19c.12,1.43,.49,2.54,1.17,3.31,.69,.74,1.63,1.14,2.83,1.14,1.06,0,1.91-.26,2.57-.74,.51-.4,.94-1.06,1.34-1.91h3.03c-.34,1.37-1,2.54-2.03,3.45-1.29,1.11-2.91,1.68-4.88,1.68-2.17,0-3.91-.69-5.17-2.03-1.37-1.43-2.06-3.34-2.06-5.77,0-2.2,.63-4.03,1.94-5.51,1.26-1.51,3-2.26,5.17-2.26,2.4,0,4.25,.8,5.51,2.46Zm-8.14,1.03c-.63,.66-1.06,1.6-1.23,2.85h7.96c-.29-2.57-1.63-3.85-4.03-3.85-1.14,0-2.03,.31-2.71,1Z"/>
      <path class="cls-1" d="M271.23,31.02v3.03c-.74-.23-1.46-.31-2.14-.31-.91,0-1.74,.37-2.46,1.11-.77,.8-1.14,1.86-1.14,3.14v7.82h-3.03v-14.76h3.03v2.23c.37-.8,.86-1.4,1.43-1.8,.69-.57,1.48-.83,2.4-.83,.74,0,1.4,.11,1.91,.37Z"/>
      <path class="cls-1" d="M284.88,35.3h-2.94c-.23-.8-.57-1.34-1.06-1.66-.51-.34-1.31-.51-2.34-.51-.91,0-1.6,.11-2.06,.4-.54,.29-.8,.74-.8,1.31,0,.51,.4,.94,1.2,1.31,.51,.23,1.48,.51,2.97,.88,1.68,.4,2.94,.89,3.74,1.4,1.17,.74,1.77,1.77,1.77,3.08,0,3.11-2.2,4.68-6.57,4.68-4.05,0-6.22-1.74-6.57-5.17h2.97c.17,1,.54,1.71,1.06,2.11,.51,.37,1.31,.57,2.46,.57,2.34,0,3.54-.69,3.54-2,0-.71-.46-1.28-1.31-1.68-.46-.23-1.46-.51-2.97-.86-1.74-.4-2.97-.83-3.65-1.28-1.14-.71-1.71-1.71-1.71-2.97,0-1.34,.54-2.4,1.66-3.14,1.11-.77,2.57-1.14,4.34-1.14,3.83,0,5.94,1.54,6.28,4.65Z"/>
      <path class="cls-1" d="M291.62,42.33c.4,.4,.63,.91,.63,1.54,0,.57-.23,1.08-.63,1.51-.43,.37-.94,.57-1.51,.57-.63,0-1.11-.2-1.48-.57-.43-.43-.63-.94-.63-1.51,0-.63,.2-1.14,.63-1.54,.37-.4,.86-.6,1.48-.6,.57,0,1.09,.2,1.51,.6Z"/>
      <path class="cls-1" d="M306.81,31.94c1.14,.91,1.88,2.28,2.17,4.11h-3c-.2-1-.6-1.74-1.23-2.2-.63-.49-1.46-.71-2.48-.71-1.26,0-2.23,.46-2.94,1.4-.74,.91-1.09,2.23-1.09,3.88s.34,2.97,1.06,3.91c.66,.91,1.63,1.4,2.94,1.4,2.25,0,3.51-1.14,3.8-3.37h3c-.34,1.97-1.12,3.45-2.26,4.43-1.14,.94-2.68,1.43-4.57,1.43-2.26,0-4-.74-5.25-2.23-1.23-1.43-1.83-3.25-1.83-5.54s.6-4.05,1.8-5.48c1.29-1.54,3.05-2.31,5.34-2.31,1.88,0,3.4,.43,4.54,1.28Z"/>
      <path class="cls-1" d="M324.63,36.7v9.11h-3.03v-8.85c0-2.51-1.17-3.77-3.46-3.77-.86,0-1.63,.29-2.25,.91-.69,.69-1.11,1.63-1.23,2.83v8.88h-3.03v-14.76h3.03v1.83c.57-.74,1.23-1.28,1.97-1.66,.74-.4,1.57-.57,2.48-.57,3.65,0,5.51,2,5.51,6.05Z"/>
    </g>
  </g>
</svg>