<?xml version="1.0" encoding="UTF-8"?>
<svg id="_图层_2" data-name="图层 2" xmlns="http://www.w3.org/2000/svg" viewBox="0 0 902.12 902.12">
  <defs>
    <style>
      .cls-1 {
        fill: #fff;
      }

      .cls-2 {
        fill: none;
        stroke: #fff;
        stroke-miterlimit: 10;
        stroke-width: 7px;
      }
    </style>
  </defs>
  <g id="_图层_1-2" data-name="图层 1">
    <g>
      <rect class="cls-2" x="3.5" y="3.5" width="895.12" height="895.12" rx="74.04" ry="74.04"/>
      <g>
        <path class="cls-1" d="M329.34,500.18h16.01l17.82-27.91c2.18-3.43,2.62-7.48,1.5-11.09-.5-2.68-1.81-5.3-3.92-7.35-20.99-20-32.58-46.97-32.58-75.94s10.71-53.89,30.15-73.63c1.5-1.56,2.55-3.36,3.18-5.3-8.91-2.8-17.69-5.79-26.41-9.03-21.74,24.17-33.64,55.19-33.64,87.9,0,18.31,3.68,36.07,11.03,52.76,5.73,13.08,13.46,24.92,22.99,35.45l-11.46,17.94c-2.18-1.37-4.67-2.06-7.1-2.06-4.42,0-8.72,2.18-11.28,6.17l-7.72,12.09h31.46Z"/>
        <path class="cls-1" d="M309.53,468.22c5.61-2.55,8.91-8.72,7.54-15.01-.56-2.55-1.87-4.8-3.55-6.54-3.11-3.11-7.72-4.61-12.33-3.61l-2.12,.44c-1.62-4.73-2.93-9.59-3.92-14.45-1.43-6.79-2.3-13.64-2.68-20.56-.12-2.12-.19-4.24-.19-6.35l-8.04-.5h-1.37c-2.87-.5-5.92,0-8.66,1.5-6.48,3.61-8.78,11.71-5.17,18.19l23.05,41.43c2.3,4.11,6.48,6.6,10.9,6.85,2.12,.12,4.42-.31,6.54-1.37Z"/>
        <path class="cls-1" d="M507.44,342.95h.31c27.85,0,52.2,19.75,57.93,46.97h0c3.86,17.94,13.89,34.2,28.28,45.79,14.33,11.52,32.27,17.88,50.52,17.88h.37c5.92,0,10.65-4.86,10.65-10.71s-4.8-10.65-10.71-10.65h-.31c-27.85,0-52.2-19.75-57.93-46.97h0c-3.86-17.94-13.89-34.2-28.28-45.79-14.33-11.52-32.27-17.88-50.52-17.88h-.37c-5.92,0-10.65,4.86-10.65,10.71,.06,5.86,4.86,10.65,10.71,10.65Z"/>
        <path class="cls-1" d="M462.77,481.93c-4.42,0-8.72,2.18-11.28,6.17l-7.72,12.09h47.41l17.82-27.91c1.06-1.68,1.68-3.43,1.93-5.3,1.81-6.6-1.74-13.64-8.29-16.01-37.38-13.71-62.73-48.22-64.6-87.96-.62-13.52,1.43-26.66,6.1-39.25,.75-1.93,1-3.92,.81-5.86-8.6-1.18-17.13-2.55-25.54-4.17-.06,.19-.19,.44-.25,.62-5.98,15.95-8.6,32.71-7.79,49.84,2.12,45.23,28.16,85.1,67.59,105.47l-9.16,14.33c-2.18-1.37-4.61-2.06-7.04-2.06Z"/>
        <path class="cls-1" d="M624.62,497.88l-25.54-39.99c-.19-.31-.37-.56-.56-.81-1.56-2.55-3.92-4.67-6.98-5.86-.75-.25-1.43-.56-2.18-.87-31.4-12.9-54.76-41.24-61.17-74.57-.5-2.49-1.56-4.67-3.11-6.48-.93,3.24-1.74,6.48-2.43,9.78-1.68,8.41-2.3,17.07-1.87,25.73,1.31,12.65,4.61,25.29,9.97,37.56,13.33,15.01,30.03,26.79,48.59,34.26l3.55,5.54c-1.56,.31-3.05,.93-4.42,1.81-5.48,3.49-7.54,10.28-5.23,16.13h52.52c-.25-.75-.62-1.5-1.12-2.24Z"/>
        <path class="cls-1" d="M340.86,377.89c0,19,4.86,37.69,14.02,54.26,8.16-3.61,16.45-6.91,24.92-9.97-.25-.62-.56-1.25-.87-1.87-7.41-12.83-11.34-27.53-11.34-42.42,0-10.84,1.99-21.31,5.79-31.02-.69,5.17-1,10.47-1,15.76,0,20.18,4.86,39.68,14.27,57.25,8.6-2.93,17.38-5.54,26.23-7.85-9.03-14.89-13.77-31.83-13.77-49.34s4.49-33.45,12.96-47.97c.44-.75,.81-1.56,1.06-2.37-14.33-2.93-28.47-6.42-42.36-10.47h0c-8.53,9.22-15.45,19.69-20.5,31.27-6.23,14.08-9.41,29.15-9.41,44.73Z"/>
        <path class="cls-1" d="M287.47,321.14c3.36,3.3,6.6,6.73,9.78,10.22,1.37-3.68,2.87-7.29,4.55-10.78,3.8-8.04,7.79-14.58,11.9-20.37,.06-.12,.19-.19,.25-.31,.37-.5,.69-.93,1-1.43,1.99-2.93,3.8-5.98,5.3-9.22,1.74-3.68,3.11-7.48,4.11-11.46q.06,0,.12-.06c.69-2.87,1.18-5.86,1.5-8.91,.93-.37,1.74-.69,2.74-.93,6.67-1.43,9.97-5.48,13.27-9.72,1.43-1.87,2.55-4.24,3.11-7.04v-.06h-98.55c.31,.87,.56,1.81,.87,2.74,2.43,7.85,4.42,15.82,5.98,23.98,.19,.87,.31,1.74,.5,2.62,2.68-3.55,6.85-5.79,11.65-5.79,8.04,0,14.51,6.48,14.51,14.51s-6.48,14.51-14.51,14.51c-3.36,0-6.48-1.12-8.91-3.05,.62,6.67,.87,13.46,.87,20.31,0,1.81,0,3.61-.06,5.48,1,.12,1.99,.19,2.99,.19h2.12c8.85-.12,17.26-2.06,24.92-5.42Z"/>
        <path class="cls-1" d="M507.44,353.6c-5.54,0-10.65-2.12-14.45-5.67-4.92,10.9-8.04,22.3-9.34,33.89-1.37-1.87-2.55-3.8-3.61-5.79-3.36-6.54-5.23-13.89-5.23-21.55,0-12.15,4.8-23.73,13.14-32.39-10.4-.5-20.74-1.37-30.96-2.49-5.73,10.59-8.85,22.55-8.85,34.89,0,25.17,12.71,48.15,33.58,61.61,1.31,.87,2.68,1.62,4.05,2.43,.62,2.62,1.25,5.3,2.06,7.91,8.6,5.3,17.94,9.47,27.85,12.33,1.18-2.99,1.18-6.42-.19-9.59-1.06-2.43-2.06-4.98-2.87-7.54-7.16-21.62-5.67-44.73,4.17-65.29,.37-.62,.75-1.18,1.06-1.68-3.24-.69-6.6-1.06-10.03-1.06h-.37Z"/>
        <path class="cls-1" d="M621.38,541.98l-5.3-1.68-.56,2.12h-27.22v-4.36h32.83v-6.1h-32.83v-4.05h-10.28v14.51h-16.7v-2.12h-10.28v32.64c0,6.48,.25,18.25-6.23,27.22l4.17,4.17c6.17-3.74,12.33-16.26,12.33-31.46v-24.42h52.52l-1.5,5.48,6.54,2.18,4.92-7.85c1.43-2.3,.25-5.48-2.43-6.29Z"/>
        <path class="cls-1" d="M576.9,565.16v1.74c0,2.99,2.43,5.36,5.36,5.36h39.62v-7.79h-34.7v-3.74l21.43-1.25v-6.1l-21.43,1.25v-3.99h-10.28v4.61l-12.33,.75v6.1l12.33-.75v3.8Z"/>
        <path class="cls-1" d="M608.61,586.15v-9.84h-9.72v2.12h-18.13v-2.12h-10.28v7.72c0,9.28-6.98,14.51-9.84,16.2l4.11,4.11c12.09-3.18,15.08-10.65,15.51-18.19h18.63v10.03c0,3.55,2.87,6.42,6.42,6.42h20.81v-8.6h-17.57v-7.85h.06Z"/>
        <path class="cls-1" d="M717.06,559.3v-6.1h-39.43v-12.46c9.78-.69,21.37-1.87,29.22-3.05,4.05-.56,6.23-5.05,4.3-8.6l-.93-1.74c-7.23,2.12-22.36,4.36-32.52,5.73v-1.93h-10.28v41.68c0,6.48,.25,18.25-6.23,27.22l4.17,4.17c6.17-3.74,12.33-16.26,12.33-31.46v-13.58h16.07v12.77c-3.92-1.31-7.85-2.49-11.71-3.49l-1.74,4.92c2.43,1.12,7.79,4.11,13.52,7.35v22.74h10.28v-16.82c5.3,3.11,9.34,5.48,9.34,5.48l2.3-4.17c1.56-2.87,.44-6.48-2.43-7.97-2.8-1.43-5.92-2.87-9.22-4.24v-16.45h12.96Z"/>
        <path class="cls-1" d="M665.79,584.09l-4.49-4.49s-2.24,1.62-5.48,3.8v-31.4h-10.28v2.12h-7.54v6.1h7.54v29.47c-1.37,.75-2.74,1.5-4.05,2.12l2.37,3.43c1.81,2.68,5.54,3.36,8.16,1.5,5.36-3.86,10.34-7.79,13.77-12.65Z"/>
        <path class="cls-1" d="M641.69,531.7s8.97,11.4,11.71,16.51l3.11-2.3c2.93-2.18,3.11-6.42,.5-8.97-5.79-5.48-11.52-9.1-11.52-9.1l-3.8,3.86Z"/>
        <path class="cls-1" d="M496.54,572.19c7.91-3.55,12.27-11.84,12.27-20.56,0-13.14-9.72-22.99-23.24-22.99h-33.39v74.44h17.32v-27.91h9.84l14.64,27.91h20.12l-17.57-30.9Zm-13.27-11.34h-13.77v-17.63h13.77c4.86,0,8.66,3.99,8.66,9.03s-3.43,8.6-8.66,8.6Z"/>
        <rect class="cls-1" x="262.49" y="528.59" width="17.44" height="74.51"/>
        <polygon class="cls-1" points="185.06 544.66 207.24 544.66 207.24 603.09 224.49 603.09 224.49 544.66 246.54 544.66 246.54 528.59 185.06 528.59 185.06 544.66"/>
        <polygon class="cls-1" points="433.12 586.52 396.8 586.52 396.8 572.07 425.46 572.07 425.46 557.31 396.8 557.31 396.8 545.16 433.12 545.16 433.12 528.59 379.55 528.59 379.55 603.09 433.12 603.09 433.12 586.52"/>
        <path class="cls-1" d="M362.23,595.8v-32.02h-17.19v22.3c-1.43,1.12-3.43,1.43-5.11,1.43-14.14,0-22.99-7.16-22.99-21.68,0-12.65,10.47-21.68,22.8-21.68,4.98,0,12.02,2.55,15.7,5.98l6.91-14.64c-6.35-5.86-17.88-8.16-26.16-8.16-22.18,0-38.25,16.45-38.25,38.5s15.57,38.5,38.25,38.5c7.79,0,15.95-2.18,22.8-6.1,.81-.5,2.62-1.56,3.24-2.43Z"/>
        <path class="cls-1" d="M540.39,539.55c0-6.04-4.92-10.96-10.96-10.96s-10.96,4.92-10.96,10.96,4.92,10.96,10.96,10.96c6.04,.06,10.96-4.92,10.96-10.96Zm-10.96,9.34c-5.11,0-9.34-4.17-9.34-9.34s4.17-9.34,9.34-9.34,9.34,4.17,9.34,9.34-4.24,9.34-9.34,9.34Z"/>
        <path class="cls-1" d="M534.47,537.18c0-2.06-1.68-3.68-3.68-3.68h-5.36v12.09h2.24v-4.73h2.37l2.43,4.73h2.62l-2.74-5.05c1.31-.62,2.12-1.93,2.12-3.36Zm-3.99,1.74h-2.8v-3.43h2.8c.93,0,1.74,.75,1.74,1.74,0,.93-.81,1.68-1.74,1.68Z"/>
        <path class="cls-1" d="M327.59,622.72h-12.09v27.97h5.42v-9.34h6.73c4.8,0,8.41-4.73,8.41-9.28-.06-4.73-3.55-9.34-8.47-9.34Zm-.62,13.46h-6.1v-8.35h6.1c2.18,0,3.86,2.12,3.86,4.17,0,2.18-1.62,4.17-3.86,4.17Z"/>
        <path class="cls-1" d="M354.5,622.72l-8.66,27.97h5.48l2.18-6.73h9.41l2.24,6.73h5.42l-8.6-27.97h-7.48Zm.31,16.38l3.43-11.09,3.43,11.09h-6.85Z"/>
        <path class="cls-1" d="M406.02,631.19c0-4.8-3.49-8.47-8.29-8.47h-12.21v27.97h5.42v-11.09h4.61l6.1,11.09h6.23l-6.91-11.9c3.11-1.06,5.05-4.36,5.05-7.6Zm-8.97,3.99h-6.17v-7.91h6.1c2.12,0,3.74,1.87,3.74,3.92,.06,2.06-1.5,3.99-3.68,3.99Z"/>
        <polygon class="cls-1" points="420.04 627.7 428.63 627.7 428.63 650.69 434.05 650.69 434.05 627.7 442.59 627.7 442.59 622.72 420.04 622.72 420.04 627.7"/>
        <polygon class="cls-1" points="473.74 640.97 462.96 622.72 457.48 622.72 457.48 650.69 462.9 650.69 462.9 632.75 473.67 650.69 479.09 650.69 479.09 622.72 473.74 622.72 473.74 640.97"/>
        <polygon class="cls-1" points="495.17 650.69 514.35 650.69 514.35 645.58 500.59 645.58 500.59 638.41 511.55 638.41 511.55 633.87 500.59 633.87 500.59 627.82 514.35 627.82 514.35 622.72 495.17 622.72 495.17 650.69"/>
        <path class="cls-1" d="M550.92,631.19c0-4.8-3.49-8.47-8.29-8.47h-12.21v27.97h5.42v-11.09h4.61l6.1,11.09h6.23l-6.91-11.9c3.18-1.06,5.05-4.36,5.05-7.6Zm-8.91,3.99h-6.17v-7.91h6.1c2.12,0,3.74,1.87,3.74,3.92s-1.56,3.99-3.68,3.99Z"/>
        <path class="cls-1" d="M573.72,630.44c0-2.49,2.8-3.36,4.92-3.36,1.81,0,4.42,.75,5.79,1.81l1.74-4.05c-2.06-1.87-5.42-2.55-8.16-2.55-5.23,0-9.84,2.37-9.84,8.16,0,8.47,12.65,7.1,12.65,11.65,0,2.68-2.55,3.92-4.86,3.92-1.81,0-5.61-1.56-7.1-2.55l-2.24,4.73c2.49,1.99,6.73,2.87,9.84,2.87,5.42,0,10.15-3.61,10.15-9.34,.06-8.47-12.9-6.79-12.9-11.28Z"/>
      </g>
    </g>
  </g>
</svg>