<?xml version="1.0" encoding="UTF-8"?>
<svg id="_图层_2" data-name="图层 2" xmlns="http://www.w3.org/2000/svg" viewBox="0 0 908.12 908.12">
  <defs>
    <style>
      .cls-1 {
        fill: #fff;
      }

      .cls-2 {
        fill: none;
        stroke: #fff;
        stroke-miterlimit: 10;
        stroke-width: 13px;
      }
    </style>
  </defs>
  <g id="_图层_1-2" data-name="图层 1">
    <g>
      <g>
        <path class="cls-1" d="M636.13,514.09c0,10.6-.14,21.19,.05,31.79,.11,5.91-2.35,8.33-8.29,8.1-7.6-.29-15.22-.33-22.81,0-6.51,.29-8.5-2.64-8.44-8.77,.2-20.65-.21-41.3,.21-61.94,.16-7.59-2.52-10.27-9.9-9.77-6.49,.44-13.03,0-19.55,.07-5.23,.05-8.18-1.93-8.07-7.64,.16-8.42,.16-16.85,0-25.26-.1-5.63,2.66-7.79,7.98-7.73,7.33,.08,14.67-.14,22,0,5.04,.1,7.77-1.76,7.38-7.12-.1-1.35,0-2.72,0-4.07,.07-15.42,.07-15.59-15.26-16.12-5.44-.19-7.98-2.03-7.82-7.69,.23-8.14,.22-16.3,0-24.45-.16-5.6,2.25-7.99,7.76-7.71,2.98,.15,5.98-.08,8.96-.02,3.82,.08,6.35-1.2,6.37-5.49,.02-5.23,3.39-6.11,7.67-6.06,6.79,.08,13.59,.16,20.37-.04,6.04-.18,10.88-.21,12.07,8.08,.84,5.86,7.19,3.35,11.12,3.43,23.87,.49,40.76,14.71,44.49,38.29,.89,5.59,1.19,11.43,.64,17.04-.83,8.42,2.22,11.84,10.72,13.37,17.68,3.18,29.66,17.55,30.21,35.56,.52,17.1,.51,34.24,.03,51.34-.54,19.18-14.41,32.29-33.61,32.63-3.8,.07-7.62,.16-11.41-.12-13.8-1-25.34-10.51-29-23.71-2.13-7.66-.96-9.39,6.86-9.56,6.79-.15,13.59-.2,20.37-.02,5.28,.14,7.28-2.25,7.19-7.38-.17-9.78-.05-19.56-.07-29.34-.01-6.56-2.99-10.17-9.86-10.15-13.58,.05-27.17,.11-40.75-.06-5.66-.07-7.71,2.5-7.63,7.92,.17,10.86,.05,21.73,.05,32.6h-.04Zm16.3-94.86c0-2.43,.09-4.86-.02-7.29-.14-2.88-1.07-5.5-4.32-6-3.42-.52-7.11-1.33-10.19,.87-2.83,2.02-2.53,22.8,.22,24.86,.81,.61,1.97,.82,3.01,1.04,9.29,1.95,11.45-.6,11.31-13.49Z"/>
        <path class="cls-1" d="M496.32,553.92c-18.76,0-37.51-.12-56.27,.07-6.58,.07-8.54-2.04-5.4-8.17,4.21-8.23,8.32-16.51,12.29-24.85,1.9-3.99,4.88-5.39,9.14-5.3,7.61,.16,15.22-.12,22.83,.06,4.85,.11,6.81-1.88,6.8-6.76-.1-31.8-.1-63.6-.01-95.41,.01-4.98-2.31-6.45-6.97-6.72-17.5-1-17.49-1.12-17.49-19.15q0-21.85,22.16-21.85c18.76,0,37.51,.17,56.26-.08,6.59-.09,9.42,2.21,9.07,9.02-.4,7.86-.3,15.77-.03,23.64,.2,5.77-1.85,8.3-7.9,8.54-15.52,.61-15.51,.82-15.51,16.12,0,27.45,.22,54.91-.14,82.36-.1,7.6,1.95,11.09,10.06,10.36,6.2-.56,12.5,.04,18.74-.12,5.09-.13,7.55,1.92,7.46,7.18-.14,7.88-.19,15.77,.02,23.65,.15,5.8-2.74,7.5-8.04,7.46-19.03-.13-38.05-.05-57.08-.05Z"/>
        <path class="cls-1" d="M285.58,443.4c0,25.25-.03,50.49,.03,75.74,.01,5.77-.72,11.37-2.74,16.77-5.42,14.46-14.6,19.15-35.03,17.98-12.36-.71-22.54-9.22-25.67-21.44-2.53-9.88-1.27-11.56,8.79-11.67,1.9-.02,3.81-.15,5.7,0,5.89,.49,8.45-2.03,8.25-8.03-.26-7.59-.05-15.2-.05-22.8,0-41.26-.02-82.52,.02-123.78,.01-11.59,.41-11.93,11.84-11.96,6.51-.02,13.05,.34,19.54-.09,7.19-.48,9.5,2.52,9.43,9.49-.26,26.6-.1,53.2-.1,79.81Z"/>
        <path class="cls-1" d="M408.78,503.58c-5.44,0-10.87,.08-16.31-.02-11.85-.22-16.61-6.32-12.4-17.48,4.01-10.65,9.3-20.82,14.26-31.1,6.56-13.6,6.66-13.55-8.25-13.56-20.55,0-24.83-6.78-15.8-25.38,8.9-18.34,18.1-36.53,26.88-54.92,2.45-5.13,5.75-7.28,11.42-7.01,7.59,.36,15.22,.26,22.83,.04,6.3-.18,6.96,2.25,4.25,7.32-6.67,12.46-13.18,25-19.65,37.56-1.32,2.56-4.2,5.52-2.11,8.18,2.6,3.3,4.35-1.8,6.81-1.84,10.58-.18,21.19-.69,31.74-.21,5.39,.25,2.59,4.17,1.38,6.6-8.16,16.28-16.46,32.49-24.64,48.76-4.97,9.88-4.23,11.06,6.66,11.14,14.32,.11,13.27-.33,7.68,12.99-6.85,16.31-17.29,23.38-34.74,18.93Z"/>
        <path class="cls-1" d="M329.31,404.83c18.87,0,18.5,0,19,18.37,.6,21.71,2.08,43.39,7.82,64.48,1.38,5.06,1,9.34-1.7,13.93-4.96,8.41-9.35,17.15-14.08,25.7-3.84,6.95-5.88,7.13-11.14,1.07-4.54-5.23-7.04-11.56-9.13-18.04-6.46-20.05-8.52-40.86-10.25-61.68-.94-11.35-.93-22.77-1.77-34.12-.55-7.51,2.43-10.5,9.85-9.77,3.76,.37,7.59,.06,11.39,.06Z"/>
        <path class="cls-1" d="M222.38,428.58c-1.67,26.55-2.93,54.78-11.65,81.98-2.09,6.51-4.67,12.78-9.08,18.09-4.76,5.73-7.18,5.57-10.72-.74-5.19-9.23-10.18-18.57-15.36-27.8-1.82-3.25-2.34-6.42-1.38-10.12,6.39-24.6,9.08-49.65,8.12-75.01-.3-7.86,2.33-10.81,10.17-10.25,7.3,.52,14.66,.33,21.99,.06,6.06-.22,8.32,2.47,7.97,8.31-.27,4.6-.05,9.23-.05,15.48Z"/>
        <path class="cls-1" d="M385.91,553.84c-7.04,0-14.11,.38-21.12-.1-8.19-.56-10.02-3.93-6.39-11.07,4.78-9.41,7.72-21.41,15.32-27.26,7.33-5.64,19.63-.52,29.76-1.1,7.56-.43,15.16-.05,22.75-.05,4.97,0,6.4,2.06,4.02,6.59-4.8,9.11-9.59,18.21-14.27,27.38-2.08,4.07-5.1,5.93-9.74,5.78-6.76-.23-13.54-.06-20.32-.06,0-.04,0-.08,0-.11Z"/>
        <path class="cls-1" d="M694.73,392.48c-.34-8.21,.28-14.89,5.51-20.13,5.86-5.87,12.72-8.1,20.68-4.87,7.73,3.14,12.05,9.06,12.44,17.39,.39,8.24-4.49,15.43-12.15,18.37-7.02,2.69-14.47,2.65-21.6,1.39-8.25-1.46-3.33-8.92-4.88-12.16Z"/>
      </g>
      <rect class="cls-2" x="6.5" y="6.5" width="895.12" height="895.12" rx="74.04" ry="74.04"/>
    </g>
  </g>
</svg>