<svg width="170" height="170" viewBox="0 0 170 170" fill="none" xmlns="http://www.w3.org/2000/svg">
<path d="M56.6663 21.25C60.4236 21.25 64.0269 22.7426 66.6837 25.3993C69.3404 28.0561 70.833 31.6594 70.833 35.4167V77.9167C70.833 81.6739 69.3404 85.2772 66.6837 87.934C64.0269 90.5908 60.4236 92.0833 56.6663 92.0833C54.7877 92.0833 52.986 92.8296 51.6577 94.158C50.3293 95.4864 49.583 97.2881 49.583 99.1667V106.25C49.583 110.007 51.0756 113.611 53.7323 116.267C56.3891 118.924 59.9924 120.417 63.7497 120.417C65.6283 120.417 67.43 121.163 68.7583 122.491C70.0867 123.82 70.833 125.621 70.833 127.5V141.667C70.833 143.545 70.0867 145.347 68.7583 146.675C67.43 148.004 65.6283 148.75 63.7497 148.75C52.478 148.75 41.6679 144.272 33.6976 136.302C25.7273 128.332 21.2497 117.522 21.2497 106.25V35.4167C21.2497 31.6594 22.7422 28.0561 25.399 25.3993C28.0558 22.7426 31.6591 21.25 35.4163 21.25H56.6663Z" stroke="#FFFFFF" stroke-opacity="0.78" stroke-width="2" stroke-linecap="round" stroke-linejoin="round"/>
<path d="M134.583 21.25C138.341 21.25 141.944 22.7426 144.601 25.3993C147.257 28.0561 148.75 31.6594 148.75 35.4167V77.9167C148.75 81.6739 147.257 85.2772 144.601 87.934C141.944 90.5908 138.341 92.0833 134.583 92.0833C132.705 92.0833 130.903 92.8296 129.575 94.158C128.246 95.4864 127.5 97.2881 127.5 99.1667V106.25C127.5 110.007 128.993 113.611 131.649 116.267C134.306 118.924 137.909 120.417 141.667 120.417C143.545 120.417 145.347 121.163 146.675 122.491C148.004 123.82 148.75 125.621 148.75 127.5V141.667C148.75 143.545 148.004 145.347 146.675 146.675C145.347 148.004 143.545 148.75 141.667 148.75C130.395 148.75 119.585 144.272 111.615 136.302C103.644 128.332 99.1667 117.522 99.1667 106.25V35.4167C99.1667 31.6594 100.659 28.0561 103.316 25.3993C105.973 22.7426 109.576 21.25 113.333 21.25H134.583Z" stroke="#FFFFFF" stroke-opacity="0.78" stroke-width="2" stroke-linecap="round" stroke-linejoin="round"/>
</svg>
