<svg width="154" height="116" viewBox="0 0 154 116" fill="none" xmlns="http://www.w3.org/2000/svg">
<path d="M41.5193 71.6928H46.1267L51.254 63.6612C51.8815 62.6752 52.007 61.5099 51.6843 60.4701C51.5408 59.6992 51.1644 58.9463 50.5548 58.3547C44.5132 52.5999 41.1787 44.8372 41.1787 36.5009C41.1787 28.5231 44.2622 20.9934 49.8556 15.3104C50.2859 14.8622 50.5907 14.3423 50.77 13.7865C48.2063 12.9798 45.6785 12.1192 43.1686 11.187C36.9119 18.1429 33.4877 27.0709 33.4877 36.4829C33.4877 41.7537 34.5454 46.863 36.6609 51.6676C38.3102 55.4325 40.5333 58.8387 43.2762 61.8685L39.9775 67.0316C39.35 66.6372 38.6329 66.44 37.9338 66.44C36.6609 66.44 35.4239 67.0675 34.6889 68.2149L32.4658 71.6928H37.0732H41.5193Z" fill="#D9B27A"/>
<path d="M35.8173 62.4958C37.4308 61.7608 38.3809 59.9859 37.9865 58.1752C37.8252 57.4402 37.4487 56.7948 36.9647 56.2928C36.0683 55.3964 34.7416 54.9662 33.415 55.253L32.8054 55.3785C32.3393 54.016 31.9628 52.6177 31.676 51.2193C31.2637 49.2652 31.0127 47.2931 30.9051 45.3032C30.8693 44.6936 30.8513 44.0841 30.8513 43.4745L28.5387 43.3311C28.3952 43.3311 28.2697 43.3311 28.1443 43.3311C27.3196 43.1877 26.4411 43.3311 25.6523 43.7614C23.7878 44.8012 23.1245 47.1318 24.1643 48.9963L30.7975 60.9182C31.4609 62.1014 32.662 62.8185 33.9349 62.8902C34.5444 62.9261 35.2077 62.8006 35.8173 62.4958Z" fill="#D9B27A"/>
<path d="M92.772 26.4426C92.8079 26.4426 92.8437 26.4426 92.8617 26.4426C100.875 26.4426 107.885 32.1257 109.534 39.9601C110.646 45.1233 113.532 49.8024 117.674 53.1369C121.797 56.4535 126.96 58.2822 132.213 58.2822C132.249 58.2822 132.285 58.2822 132.32 58.2822C134.024 58.2822 135.386 56.8838 135.386 55.1986C135.386 53.5134 134.006 52.133 132.302 52.133C132.267 52.133 132.231 52.133 132.213 52.133C124.199 52.133 117.189 46.4499 115.54 38.6155C114.429 33.4524 111.542 28.7732 107.401 25.4387C103.278 22.1221 98.1145 20.2935 92.8617 20.2935C92.8258 20.2935 92.79 20.2935 92.7541 20.2935C91.051 20.2935 89.6885 21.6918 89.6885 23.377C89.7064 25.0622 91.0868 26.4426 92.772 26.4426Z" fill="#D9B27A"/>
<path d="M79.9215 66.4393C78.6486 66.4393 77.4116 67.0668 76.6766 68.2142L74.4536 71.6921H79.061H83.4891H88.0965L93.2238 63.6605C93.5286 63.1765 93.7079 62.6745 93.7796 62.1367C94.2995 60.2364 93.2776 58.2105 91.3952 57.5293C80.6386 53.5852 73.3421 43.6533 72.8042 32.2154C72.6249 28.3251 73.2166 24.5424 74.5611 20.921C74.7763 20.3653 74.848 19.7916 74.7942 19.2358C72.3202 18.8952 69.8641 18.5008 67.4439 18.0347C67.4259 18.0885 67.3901 18.1602 67.3721 18.2139C65.6511 22.8034 64.8981 27.626 65.1312 32.5561C65.7407 45.5715 73.2345 57.0452 84.5827 62.9076L81.9473 67.0309C81.3199 66.6365 80.6207 66.4393 79.9215 66.4393Z" fill="#D9B27A"/>
<path d="M126.492 71.029L119.142 59.5195C119.088 59.4299 119.035 59.3581 118.981 59.2864C118.533 58.5514 117.851 57.9419 116.973 57.6012C116.758 57.5295 116.561 57.4399 116.345 57.3502C107.31 53.6392 100.587 45.4821 98.7405 35.8908C98.5971 35.1737 98.2923 34.5463 97.8441 34.0264C97.5752 34.9586 97.3421 35.8908 97.1449 36.841C96.6609 39.2612 96.4816 41.7532 96.6071 44.2451C96.9836 47.8844 97.9338 51.5238 99.4755 55.0555C103.312 59.3761 108.117 62.7644 113.459 64.9157L114.481 66.5113C114.033 66.6009 113.603 66.7802 113.208 67.0312C111.63 68.0351 111.039 69.9892 111.702 71.6744H117.78H120.738H126.815C126.743 71.4593 126.636 71.2442 126.492 71.029Z" fill="#D9B27A"/>
<path d="M44.833 36.5002C44.833 41.9681 46.2314 47.3464 48.8667 52.1151C51.2153 51.0753 53.5996 50.1252 56.0378 49.2467C55.9661 49.0674 55.8764 48.8882 55.7868 48.7089C53.6534 45.0158 52.524 40.7849 52.524 36.5002C52.524 33.3807 53.0977 30.3689 54.1912 27.5722C53.994 29.0602 53.9044 30.584 53.9044 32.1079C53.9044 37.9164 55.3028 43.5278 58.0098 48.5834C60.4838 47.7408 63.0117 46.9878 65.5574 46.3245C62.9579 42.0398 61.5954 37.1635 61.5954 32.1258C61.5954 27.2674 62.8862 22.4987 65.3243 18.3215C65.4498 18.1064 65.5574 17.8733 65.6291 17.6403C61.5057 16.7977 57.4361 15.7937 53.4383 14.6284C50.9822 17.2817 48.9922 20.2936 47.5401 23.6281C45.7473 27.6797 44.833 32.0182 44.833 36.5002Z" fill="#D9B27A"/>
<path d="M29.4709 20.1686C30.4389 21.1188 31.3712 22.1048 32.2855 23.1087C32.6799 22.051 33.1102 21.0112 33.5942 20.0073C34.6878 17.6946 35.8352 15.8122 37.0184 14.1449C37.0363 14.1091 37.0722 14.0911 37.0901 14.0553C37.1977 13.9119 37.2873 13.7864 37.3769 13.6429C37.9506 12.8003 38.4705 11.9219 38.9008 10.9897C39.4028 9.93192 39.7972 8.83833 40.084 7.69096C40.1019 7.69096 40.1019 7.69097 40.1199 7.67304C40.3171 6.84837 40.4605 5.98784 40.5501 5.10938C40.8191 5.00181 41.0521 4.91218 41.3389 4.84047C43.2572 4.42813 44.2074 3.26283 45.1575 2.04375C45.5699 1.50592 45.8926 0.824673 46.0539 0.0179287V0H17.6924C17.782 0.250987 17.8537 0.519904 17.9434 0.788818C18.6425 3.0477 19.2162 5.34244 19.6644 7.69096C19.7182 7.94195 19.7541 8.19294 19.8078 8.44392C20.5787 7.42205 21.7799 6.77666 23.1603 6.77666C25.473 6.77666 27.3375 8.64113 27.3375 10.9538C27.3375 13.2665 25.473 15.1309 23.1603 15.1309C22.1922 15.1309 21.2958 14.8082 20.5967 14.2525C20.7759 16.1707 20.8476 18.1249 20.8476 20.0969C20.8476 20.6168 20.8476 21.1367 20.8297 21.6745C21.1166 21.7104 21.4034 21.7283 21.6902 21.7283C21.7978 21.7283 21.8875 21.7283 21.995 21.7283C22.1026 21.7283 22.1922 21.7283 22.2998 21.7283C24.8455 21.6925 27.2658 21.1367 29.4709 20.1686Z" fill="#D9B27A"/>
<path d="M92.7742 29.5087C91.1786 29.5087 89.7085 28.8992 88.615 27.8773C87.1987 31.0146 86.3023 34.2954 85.9258 37.6299C85.5314 37.0921 85.1908 36.5364 84.886 35.9627C83.9179 34.0803 83.3801 31.9648 83.3801 29.7597C83.3801 26.2638 84.7605 22.9293 87.1628 20.4373C84.1689 20.2939 81.1929 20.0429 78.2528 19.7202C76.6034 22.7679 75.707 26.21 75.707 29.7597C75.707 37.0025 79.3643 43.6178 85.37 47.4901C85.7465 47.7411 86.1409 47.9563 86.5353 48.1893C86.7146 48.9423 86.8939 49.7132 87.1269 50.4661C89.601 51.99 92.2901 53.1911 95.1406 54.0158C95.4812 53.1553 95.4812 52.1693 95.0868 51.2549C94.7821 50.5558 94.4952 49.8207 94.2622 49.0857C92.2005 42.8648 92.6307 36.2137 95.4633 30.2975C95.5709 30.1183 95.6784 29.9569 95.7681 29.8135C94.8358 29.6163 93.8677 29.5087 92.8817 29.5087H92.7742Z" fill="#D9B27A"/>
<path d="M125.561 83.7221L124.038 83.238L123.876 83.8476H116.042V82.5926H125.49V80.8357H116.042V79.6704H113.084V83.8476H108.279V83.238H105.321V85.6941V86.214V92.6321C105.321 94.4966 105.393 97.8849 103.528 100.466L104.729 101.668C106.504 100.592 108.279 96.9885 108.279 92.6142V86.1961V85.5865H123.392L122.962 87.1642L124.844 87.7916L126.261 85.5328C126.673 84.8694 126.332 83.9551 125.561 83.7221Z" fill="#D9B27A"/>
<path d="M112.765 90.391V90.893C112.765 91.7535 113.464 92.4348 114.306 92.4348H125.708V90.1938H115.723V89.1181L121.89 88.7596V87.0027L115.723 87.3612V86.2139H112.765V87.5405L109.215 87.7557V89.5126L112.765 89.2974V90.1938V90.391Z" fill="#D9B27A"/>
<path d="M121.888 96.4327V94.1917V93.6001H119.092V94.2096H113.875V93.6001H110.917V94.2096V95.8231C110.917 98.4944 108.909 100 108.084 100.484L109.267 101.668C112.745 100.753 113.606 98.6019 113.731 96.4327H119.092V98.6916V98.9425V99.319C119.092 100.341 119.916 101.166 120.938 101.166H126.926V98.6916H121.87V96.4327H121.888Z" fill="#D9B27A"/>
<path d="M153.101 88.7052V86.9483H149.336H146.378H141.752V83.3627C144.567 83.1655 147.902 82.8249 150.16 82.4843C151.326 82.3229 151.953 81.0321 151.397 80.0103L151.129 79.5083C149.049 80.1178 144.693 80.7632 141.77 81.1576V80.6019H138.812V81.4086V81.5341V81.57V83.4882V86.9303V88.6872V92.5955C138.812 94.46 138.884 97.8483 137.02 100.43L138.221 101.631C139.996 100.555 141.77 96.9519 141.77 92.5776V88.6693H146.396V92.3445C145.266 91.968 144.137 91.6274 143.025 91.3406L142.523 92.7568C143.222 93.0795 144.764 93.9401 146.414 94.8723V101.416H149.372V96.5754C150.896 97.4718 152.061 98.1531 152.061 98.1531L152.724 96.9519C153.172 96.1272 152.85 95.0874 152.025 94.6572C151.218 94.2448 150.322 93.8325 149.372 93.4381V88.7052H153.101Z" fill="#D9B27A"/>
<path d="M138.346 95.8407L137.056 94.5499C137.056 94.5499 136.41 95.016 135.478 95.6435V88.9744V87.2175V86.6079H132.52V87.2175H130.351V88.9744H132.52V97.4541C132.125 97.6693 131.731 97.8844 131.355 98.0637L132.036 99.0497C132.556 99.8206 133.631 100.018 134.384 99.48C135.926 98.3684 137.36 97.239 138.346 95.8407Z" fill="#D9B27A"/>
<path d="M131.407 80.764C131.407 80.764 133.988 84.0436 134.777 85.5132L135.673 84.8501C136.515 84.2229 136.569 83.0042 135.816 82.2694C134.149 80.6923 132.5 79.6528 132.5 79.6528L131.407 80.764Z" fill="#D9B27A"/>
<path d="M89.6356 92.4177C91.9124 91.3958 93.1673 89.0114 93.1673 86.5015C93.1673 82.7188 90.3706 79.8862 86.4803 79.8862H76.8711V101.31H81.855V93.2782H84.6876L88.9006 101.31H94.6912L89.6356 92.4177ZM85.817 89.1548H81.855V84.0813H85.817C87.2154 84.0813 88.3089 85.2287 88.3089 86.6808C88.3089 88.0612 87.3229 89.1548 85.817 89.1548Z" fill="#D9B27A"/>
<path d="M27.302 79.8672H22.2822V101.309H27.302V79.8672Z" fill="#D9B27A"/>
<path d="M0 84.4925H6.38224V101.309H11.3482V84.4925H17.6946V79.8672H0V84.4925Z" fill="#D9B27A"/>
<path d="M71.3846 96.5399H60.9328V92.3807H69.1795V88.1318H60.9328V84.6359H71.3846V79.8672H55.9668V101.309H71.3846V96.5399Z" fill="#D9B27A"/>
<path d="M50.9847 99.2108V89.996H46.0367V96.4141C45.6244 96.7368 45.0507 96.8264 44.5666 96.8264C40.4971 96.8264 37.9513 94.7647 37.9513 90.5876C37.9513 86.9483 40.9632 84.3488 44.5128 84.3488C45.9471 84.3488 47.9729 85.0838 49.0306 86.0698L51.0206 81.8568C49.192 80.1716 45.8753 79.5083 43.491 79.5083C37.1087 79.5083 32.4834 84.2412 32.4834 90.5876C32.4834 97.1132 36.9653 101.667 43.491 101.667C45.7319 101.667 48.0805 101.039 50.0525 99.91C50.2856 99.7665 50.8055 99.4618 50.9847 99.2108Z" fill="#D9B27A"/>
<path d="M102.254 83.0214C102.254 81.283 100.838 79.8672 99.0995 79.8672C97.3611 79.8672 95.9453 81.283 95.9453 83.0214C95.9453 84.7598 97.3611 86.1756 99.0995 86.1756C100.838 86.1935 102.254 84.7598 102.254 83.0214ZM99.0995 85.7096C97.63 85.7096 96.4113 84.5089 96.4113 83.0214C96.4113 81.5339 97.612 80.3331 99.0995 80.3331C100.569 80.3331 101.788 81.5339 101.788 83.0214C101.788 84.5089 100.569 85.7096 99.0995 85.7096Z" fill="#D9B27A"/>
<path d="M100.553 82.3411C100.553 81.7497 100.069 81.2837 99.4954 81.2837H97.9541V84.7605H98.5993V83.3984H99.2803L99.9792 84.7605H100.732L99.9434 83.3088C100.32 83.1296 100.553 82.7533 100.553 82.3411ZM99.4058 82.8429H98.5993V81.8572H99.4058C99.6746 81.8572 99.9076 82.0722 99.9076 82.359C99.9076 82.6278 99.6746 82.8429 99.4058 82.8429Z" fill="#D9B27A"/>
<path d="M41.018 106.956H37.54V115.006H39.0997V112.316H41.0359C42.4164 112.316 43.4562 110.954 43.4562 109.645C43.4382 108.283 42.4343 106.956 41.018 106.956ZM40.8387 110.828H39.0818V108.426H40.8387C41.4662 108.426 41.9502 109.036 41.9502 109.627C41.9502 110.255 41.4841 110.828 40.8387 110.828Z" fill="#D9B27A"/>
<path d="M48.7605 106.956L46.2686 115.006H47.8462L48.4737 113.069H51.1807L51.8261 115.006H53.3858L50.9118 106.956H48.7605ZM48.8501 111.671L49.8362 108.48L50.8222 111.671H48.8501Z" fill="#D9B27A"/>
<path d="M63.5896 109.394C63.5896 108.014 62.5857 106.956 61.2052 106.956H57.6914V115.006H59.2511V111.814H60.5778L62.3347 115.006H64.1274L62.1375 111.581C63.0338 111.277 63.5896 110.326 63.5896 109.394ZM61.008 110.542H59.2332V108.265H60.9901C61.5996 108.265 62.0658 108.803 62.0658 109.394C62.0837 109.986 61.6355 110.542 61.008 110.542Z" fill="#D9B27A"/>
<path d="M67.6221 108.39H70.0961V115.006H71.6558V108.39H74.1119V106.956H67.6221V108.39Z" fill="#D9B27A"/>
<path d="M83.0756 112.209L79.9741 106.956H78.3965V115.006H79.9562V109.842L83.0577 115.006H84.6174V106.956H83.0756V112.209Z" fill="#D9B27A"/>
<path d="M89.2402 115.006H94.7619V113.536H90.7999V111.474H93.9552V110.165H90.7999V108.426H94.7619V106.956H89.2402V115.006Z" fill="#D9B27A"/>
<path d="M105.288 109.394C105.288 108.014 104.284 106.956 102.903 106.956H99.3896V115.006H100.949V111.814H102.276L104.033 115.006H105.826L103.836 111.581C104.75 111.277 105.288 110.326 105.288 109.394ZM102.724 110.542H100.949V108.265H102.706C103.316 108.265 103.782 108.803 103.782 109.394C103.782 109.986 103.334 110.542 102.724 110.542Z" fill="#D9B27A"/>
<path d="M111.846 109.179C111.846 108.462 112.653 108.211 113.263 108.211C113.783 108.211 114.536 108.426 114.93 108.73L115.432 107.565C114.84 107.027 113.872 106.83 113.084 106.83C111.578 106.83 110.251 107.511 110.251 109.179C110.251 111.617 113.89 111.222 113.89 112.531C113.89 113.302 113.155 113.661 112.492 113.661C111.972 113.661 110.878 113.212 110.448 112.925L109.803 114.288C110.52 114.862 111.739 115.113 112.635 115.113C114.195 115.113 115.558 114.073 115.558 112.424C115.575 109.985 111.846 110.469 111.846 109.179Z" fill="#D9B27A"/>
</svg>
